<svg width="306" height="50" viewBox="0 0 306 50" fill="none" xmlns="http://www.w3.org/2000/svg">
<path d="M14.4323 24.6141V48.7455H0V24.7106C0 8.68732 11.7383 0 26.5555 0C27.0366 0 27.7101 2.21248e-06 28.3836 0.096528C29.0571 0.193054 29.8268 0.386105 30.5003 0.482631V14.4789C30.0192 14.3823 29.442 14.2858 28.7684 14.1893C28.0949 14.0928 27.5176 13.9962 27.0366 13.9962C24.6312 13.9962 22.7069 14.2858 21.0712 14.7684C18.3772 15.7337 15.9718 17.5677 15.1058 20.4635C14.6248 21.7183 14.4323 23.1662 14.4323 24.6141Z" fill="white"/>
<path d="M59.643 23.4208C59.8465 27.4156 60.05 31.4105 60.2535 35.4053C62.9133 35.1686 65.5997 34.8192 68.3177 34.2716C72.3115 33.4361 76.423 32.3101 80.51 29.7868C84.3385 27.5375 89.4856 21.9212 87.4046 14.9596L87.3094 14.6631C83.6148 3.69891 70.545 -1.91116 60.3047 0.671265L60.397 0.654014C47.9515 3.18216 33.3119 13.7717 35.9614 28.4891L35.9515 28.3723C37.2417 40.7063 48.6141 49.6435 59.8489 49.8379L59.8851 49.841C65.3738 49.9199 70.8503 49.417 76.0982 47.907C78.493 47.1798 80.9018 46.211 82.7766 44.5455C80.7767 46.0511 78.3504 46.801 75.9495 47.3258C70.7102 48.391 65.2665 48.4471 60.0114 47.9466L60.0476 47.9497C49.4102 46.8684 40.6838 37.9401 40.4624 28.107L40.4525 27.9901C39.2625 16.5796 51.1144 9.42018 61.6736 7.99449L61.7659 7.97723C69.21 7.00567 76.5278 10.9955 78.2437 17.9008L78.1485 17.6043C78.2219 18.1208 77.5828 19.515 75.1771 20.7264C72.8699 21.9123 69.7025 22.6416 66.4653 23.0231C64.2526 23.2856 61.9601 23.4026 59.643 23.4208Z" fill="#136F8A"/>
<path d="M62.4217 23.7221L62.7089 34.354L52.1131 29.3209L62.4217 23.7221Z" fill="#136F8A" stroke="#136F8A" stroke-width="6"/>
<path d="M141.568 24.6141V48.7455H127.135V24.6141C127.135 17.9538 124.056 13.4171 117.033 13.4171C110.105 13.4171 106.93 18.0503 106.93 24.6141V48.7455H92.4978V24.6141C92.4978 9.7491 102.697 0 117.033 0C131.946 0 141.568 10.2317 141.568 24.6141Z" fill="white"/>
<path d="M173.126 0C188.039 0 198.623 9.84582 198.623 24.6143C198.623 39.7687 187.462 49.2285 173.126 49.2285C158.309 49.2284 147.629 39.3825 147.629 24.6143C147.629 9.36329 158.694 0.000125399 173.126 0ZM173.126 13.417C166.102 13.4171 162.062 17.568 162.062 24.6143C162.062 31.6604 166.103 35.8114 173.126 35.8115C180.15 35.8115 184.191 31.6605 184.191 24.6143C184.191 17.5679 180.15 13.417 173.126 13.417Z" fill="white"/>
<path d="M251.831 0L232.106 48.2629H217.674L197.95 0H212.286C214.403 5.50197 216.52 10.9074 218.636 16.4094C220.657 21.9113 222.774 27.3168 224.89 32.8188C227.007 27.3168 229.124 21.9113 231.241 16.4094C233.261 10.9074 235.378 5.50197 237.495 0H251.831Z" fill="white"/>
<path d="M276.847 0C292.145 0 301.767 9.84582 302.151 24.6143C302.248 25.8691 302.248 27.3173 302.248 29.0547C302.248 35.8112 303.306 42.5677 306 48.7451H291.567C290.605 46.3321 289.739 43.9187 289.162 41.4092C285.891 46.8145 280.888 49.2284 274.73 49.2285C260.972 49.2285 251.157 37.6449 251.157 24.4209C251.157 9.16994 262.511 4.55504e-05 276.847 0ZM276.847 13.417C274.826 13.417 273.095 13.707 271.651 14.2861C267.225 16.3132 265.59 20.0777 265.59 24.7109C265.59 26.2552 265.782 27.7033 266.263 28.958C267.706 33.9772 272.036 35.8115 276.847 35.8115C284.159 35.8115 287.719 31.8535 287.719 24.6143C287.334 17.5679 284.159 13.417 276.847 13.417Z" fill="white"/>
</svg>
