<svg width="306" height="69" viewBox="0 0 306 69" fill="none" xmlns="http://www.w3.org/2000/svg">
<g clip-path="url(#clip0_102_2)">
<path d="M35.3016 69.224C34.6016 69.224 33.9903 69.1493 33.4676 69C32.9449 68.8507 32.4643 68.6267 32.0256 68.328L32.4736 67.376C33.2576 67.936 34.2003 68.216 35.3016 68.216C35.9363 68.216 36.4636 68.062 36.8836 67.754C37.3036 67.446 37.5136 67.026 37.5136 66.494C37.5136 66.1673 37.4156 65.892 37.2196 65.668C37.0236 65.444 36.7763 65.2667 36.4776 65.136C36.1883 64.996 35.7823 64.8327 35.2596 64.646C34.6343 64.422 34.1303 64.2167 33.7476 64.03C33.3743 63.8433 33.0523 63.582 32.7816 63.246C32.5203 62.9007 32.3896 62.462 32.3896 61.93C32.3896 61.09 32.6883 60.4413 33.2856 59.984C33.8829 59.5267 34.6483 59.298 35.5816 59.298C36.7016 59.298 37.6769 59.592 38.5076 60.18L38.0596 61.104C37.3129 60.5627 36.4963 60.292 35.6096 60.292C35.0403 60.292 34.5736 60.4273 34.2096 60.698C33.8456 60.9687 33.6636 61.3607 33.6636 61.874C33.6636 62.1913 33.7616 62.4573 33.9576 62.672C34.1536 62.8867 34.3963 63.064 34.6856 63.204C34.9749 63.3347 35.3763 63.4933 35.8896 63.68C36.5149 63.904 37.0189 64.114 37.4016 64.31C37.7843 64.4967 38.1109 64.7673 38.3816 65.122C38.6523 65.4673 38.7876 65.906 38.7876 66.438C38.7876 67.0073 38.6429 67.502 38.3536 67.922C38.0643 68.342 37.6536 68.664 37.1216 68.888C36.5989 69.112 35.9923 69.224 35.3016 69.224ZM44.7071 69.224C43.7178 69.224 42.8684 69.0047 42.1591 68.566C41.4591 68.118 40.9318 67.516 40.5771 66.76C40.2224 66.004 40.0451 65.1687 40.0451 64.254C40.0451 63.3393 40.2224 62.5087 40.5771 61.762C40.9318 61.006 41.4591 60.4087 42.1591 59.97C42.8684 59.522 43.7178 59.298 44.7071 59.298C45.6964 59.298 46.5411 59.522 47.2411 59.97C47.9504 60.4087 48.4824 61.006 48.8371 61.762C49.1918 62.5087 49.3691 63.3347 49.3691 64.24C49.3691 65.164 49.1918 66.004 48.8371 66.76C48.4824 67.516 47.9504 68.118 47.2411 68.566C46.5411 69.0047 45.6964 69.224 44.7071 69.224ZM44.7071 68.216C45.4164 68.216 46.0231 68.048 46.5271 67.712C47.0311 67.3667 47.4138 66.8953 47.6751 66.298C47.9364 65.6913 48.0671 65.01 48.0671 64.254C48.0671 63.498 47.9364 62.8213 47.6751 62.224C47.4138 61.6267 47.0264 61.1553 46.5131 60.81C46.0091 60.4647 45.4071 60.292 44.7071 60.292C43.9978 60.292 43.3864 60.4647 42.8731 60.81C42.3691 61.1553 41.9864 61.6267 41.7251 62.224C41.4638 62.8213 41.3331 63.498 41.3331 64.254C41.3331 65.01 41.4638 65.6913 41.7251 66.298C41.9864 66.8953 42.3691 67.3667 42.8731 67.712C43.3864 68.048 43.9978 68.216 44.7071 68.216ZM57.2559 68.034V69H51.4179V59.48H52.7059V68.034H57.2559ZM62.6959 69.224C61.4546 69.224 60.4979 68.8787 59.8259 68.188C59.1632 67.4973 58.8319 66.5827 58.8319 65.444V59.48H60.1199V65.43C60.1199 66.3167 60.3439 67.0027 60.7919 67.488C61.2399 67.9733 61.8746 68.216 62.6959 68.216C63.5172 68.216 64.1472 67.9733 64.5859 67.488C65.0339 67.0027 65.2579 66.3167 65.2579 65.43V59.48H66.5459V65.416C66.5459 66.5733 66.2146 67.4973 65.5519 68.188C64.8892 68.8787 63.9372 69.224 62.6959 69.224ZM76.7366 67.74C76.3632 68.132 75.9152 68.4587 75.3926 68.72C74.8792 68.9813 74.3146 69.14 73.6986 69.196L73.3206 69.896C73.3672 69.8867 73.4372 69.882 73.5306 69.882C73.8386 69.882 74.0952 69.966 74.3006 70.134C74.5152 70.3113 74.6226 70.5307 74.6226 70.792C74.6226 71.1373 74.4686 71.4453 74.1606 71.716C73.8526 71.9867 73.3719 72.1967 72.7186 72.346L72.4246 71.744C72.8912 71.604 73.2086 71.464 73.3766 71.324C73.5446 71.184 73.6286 71.0347 73.6286 70.876C73.6286 70.7733 73.5912 70.6893 73.5166 70.624C73.4419 70.568 73.3346 70.54 73.1946 70.54C73.0452 70.54 72.8772 70.582 72.6906 70.666L72.2566 70.218L72.8026 69.196C71.8599 69.1213 71.0619 68.8507 70.4086 68.384C69.7646 67.9173 69.2792 67.32 68.9526 66.592C68.6352 65.864 68.4766 65.0753 68.4766 64.226C68.4766 63.33 68.6632 62.5087 69.0366 61.762C69.4099 61.0153 69.9699 60.418 70.7166 59.97C71.4632 59.522 72.3732 59.298 73.4466 59.298C74.0719 59.298 74.6552 59.4007 75.1966 59.606C75.7472 59.802 76.2139 60.082 76.5966 60.446L76.0646 61.3C75.7659 60.992 75.3832 60.7493 74.9166 60.572C74.4499 60.3853 73.9599 60.292 73.4466 60.292C72.6626 60.292 71.9952 60.4647 71.4446 60.81C70.8939 61.1553 70.4739 61.6267 70.1846 62.224C69.9046 62.8213 69.7646 63.4933 69.7646 64.24C69.7646 65.0053 69.8999 65.6867 70.1706 66.284C70.4412 66.8813 70.8379 67.3527 71.3606 67.698C71.8926 68.0433 72.5319 68.216 73.2786 68.216C74.4266 68.216 75.4206 67.7773 76.2606 66.9L76.7366 67.74ZM82.5656 69.224C81.5763 69.224 80.7269 69.0047 80.0176 68.566C79.3176 68.118 78.7903 67.516 78.4356 66.76C78.0809 66.004 77.9036 65.1687 77.9036 64.254C77.9036 63.3393 78.0809 62.5087 78.4356 61.762C78.7903 61.006 79.3176 60.4087 80.0176 59.97C80.7269 59.522 81.5763 59.298 82.5656 59.298C83.5549 59.298 84.3996 59.522 85.0996 59.97C85.8089 60.4087 86.3409 61.006 86.6956 61.762C87.0503 62.5087 87.2276 63.3347 87.2276 64.24C87.2276 65.164 87.0503 66.004 86.6956 66.76C86.3409 67.516 85.8089 68.118 85.0996 68.566C84.3996 69.0047 83.5549 69.224 82.5656 69.224ZM82.5656 68.216C83.2749 68.216 83.8816 68.048 84.3856 67.712C84.8896 67.3667 85.2723 66.8953 85.5336 66.298C85.7949 65.6913 85.9256 65.01 85.9256 64.254C85.9256 63.498 85.7949 62.8213 85.5336 62.224C85.2723 61.6267 84.8849 61.1553 84.3716 60.81C83.8676 60.4647 83.2656 60.292 82.5656 60.292C81.8563 60.292 81.2449 60.4647 80.7316 60.81C80.2276 61.1553 79.8449 61.6267 79.5836 62.224C79.3223 62.8213 79.1916 63.498 79.1916 64.254C79.1916 65.01 79.3223 65.6913 79.5836 66.298C79.8449 66.8953 80.2276 67.3667 80.7316 67.712C81.2449 68.048 81.8563 68.216 82.5656 68.216ZM80.2136 58.5C80.2603 57.8747 80.4049 57.3893 80.6476 57.044C80.8903 56.6987 81.2123 56.526 81.6136 56.526C81.8469 56.526 82.0429 56.582 82.2016 56.694C82.3603 56.7967 82.5329 56.946 82.7196 57.142C82.8783 57.31 83.0089 57.4313 83.1116 57.506C83.2143 57.5807 83.3356 57.618 83.4756 57.618C83.6623 57.618 83.8069 57.5293 83.9096 57.352C84.0123 57.1747 84.0916 56.8853 84.1476 56.484L84.9176 56.54C84.8709 57.1467 84.7263 57.632 84.4836 57.996C84.2409 58.3507 83.9189 58.528 83.5176 58.528C83.2656 58.528 83.0556 58.472 82.8876 58.36C82.7196 58.248 82.5423 58.0893 82.3556 57.884C82.2156 57.7347 82.0943 57.6227 81.9916 57.548C81.8889 57.4733 81.7769 57.436 81.6556 57.436C81.4689 57.436 81.3243 57.52 81.2216 57.688C81.1283 57.856 81.0489 58.1453 80.9836 58.556L80.2136 58.5ZM95.1144 68.034V69H89.2764V59.48H94.8344V60.446H90.5644V63.484H94.2744V64.45H90.5644V68.034H95.1144ZM99.6639 69.224C98.9639 69.224 98.3525 69.1493 97.8299 69C97.3072 68.8507 96.8265 68.6267 96.3879 68.328L96.8359 67.376C97.6199 67.936 98.5625 68.216 99.6639 68.216C100.299 68.216 100.826 68.062 101.246 67.754C101.666 67.446 101.876 67.026 101.876 66.494C101.876 66.1673 101.778 65.892 101.582 65.668C101.386 65.444 101.139 65.2667 100.84 65.136C100.551 64.996 100.145 64.8327 99.6219 64.646C98.9965 64.422 98.4925 64.2167 98.1099 64.03C97.7365 63.8433 97.4145 63.582 97.1439 63.246C96.8825 62.9007 96.7519 62.462 96.7519 61.93C96.7519 61.09 97.0505 60.4413 97.6479 59.984C98.2452 59.5267 99.0105 59.298 99.9439 59.298C101.064 59.298 102.039 59.592 102.87 60.18L102.422 61.104C101.675 60.5627 100.859 60.292 99.9719 60.292C99.4025 60.292 98.9359 60.4273 98.5719 60.698C98.2079 60.9687 98.0259 61.3607 98.0259 61.874C98.0259 62.1913 98.1239 62.4573 98.3199 62.672C98.5159 62.8867 98.7585 63.064 99.0479 63.204C99.3372 63.3347 99.7385 63.4933 100.252 63.68C100.877 63.904 101.381 64.114 101.764 64.31C102.147 64.4967 102.473 64.7673 102.744 65.122C103.015 65.4673 103.15 65.906 103.15 66.438C103.15 67.0073 103.005 67.502 102.716 67.922C102.427 68.342 102.016 68.664 101.484 68.888C100.961 69.112 100.355 69.224 99.6639 69.224ZM114.235 68.034V69H108.397V59.48H113.955V60.446H109.685V63.484H113.395V64.45H109.685V68.034H114.235ZM125.463 59.48V69H124.189V65.682L124.259 61.566L121.333 65.934H120.451L117.497 61.524L117.581 65.682V69H116.307V59.48H117.455L120.885 64.576L124.315 59.48H125.463ZM137.362 68.034V69H131.524V59.48H137.082V60.446H132.812V63.484H136.522V64.45H132.812V68.034H137.362ZM143.466 69.21C142.42 69.21 141.538 68.9813 140.82 68.524C140.101 68.0667 139.56 67.46 139.196 66.704C138.841 65.948 138.664 65.122 138.664 64.226C138.664 63.33 138.85 62.5087 139.224 61.762C139.597 61.0153 140.157 60.418 140.904 59.97C141.65 59.522 142.56 59.298 143.634 59.298C144.259 59.298 144.842 59.4007 145.384 59.606C145.934 59.802 146.401 60.082 146.784 60.446L146.252 61.3C145.953 60.992 145.57 60.7493 145.104 60.572C144.637 60.3853 144.147 60.292 143.634 60.292C142.85 60.292 142.182 60.4647 141.632 60.81C141.081 61.1553 140.661 61.6267 140.372 62.224C140.092 62.8213 139.952 63.4933 139.952 64.24C139.952 65.0053 140.087 65.6867 140.358 66.284C140.628 66.8813 141.025 67.3527 141.548 67.698C142.08 68.0433 142.719 68.216 143.466 68.216C144.614 68.216 145.608 67.7773 146.448 66.9L146.924 67.74C146.504 68.1693 146 68.524 145.412 68.804C144.824 69.0747 144.175 69.21 143.466 69.21ZM152.753 69.224C151.763 69.224 150.914 69.0047 150.205 68.566C149.505 68.118 148.977 67.516 148.623 66.76C148.268 66.004 148.091 65.1687 148.091 64.254C148.091 63.3393 148.268 62.5087 148.623 61.762C148.977 61.006 149.505 60.4087 150.205 59.97C150.914 59.522 151.763 59.298 152.753 59.298C153.742 59.298 154.587 59.522 155.287 59.97C155.996 60.4087 156.528 61.006 156.883 61.762C157.237 62.5087 157.415 63.3347 157.415 64.24C157.415 65.164 157.237 66.004 156.883 66.76C156.528 67.516 155.996 68.118 155.287 68.566C154.587 69.0047 153.742 69.224 152.753 69.224ZM152.753 68.216C153.462 68.216 154.069 68.048 154.573 67.712C155.077 67.3667 155.459 66.8953 155.721 66.298C155.982 65.6913 156.113 65.01 156.113 64.254C156.113 63.498 155.982 62.8213 155.721 62.224C155.459 61.6267 155.072 61.1553 154.559 60.81C154.055 60.4647 153.453 60.292 152.753 60.292C152.043 60.292 151.432 60.4647 150.919 60.81C150.415 61.1553 150.032 61.6267 149.771 62.224C149.509 62.8213 149.379 63.498 149.379 64.254C149.379 65.01 149.509 65.6913 149.771 66.298C150.032 66.8953 150.415 67.3667 150.919 67.712C151.432 68.048 152.043 68.216 152.753 68.216ZM167.177 59.48V69L166.057 69.014L160.681 61.538L160.751 64.856V69H159.463V59.48H160.583L165.959 66.97L165.889 63.26V59.48H167.177ZM173.917 69.224C172.928 69.224 172.079 69.0047 171.369 68.566C170.669 68.118 170.142 67.516 169.787 66.76C169.433 66.004 169.255 65.1687 169.255 64.254C169.255 63.3393 169.433 62.5087 169.787 61.762C170.142 61.006 170.669 60.4087 171.369 59.97C172.079 59.522 172.928 59.298 173.917 59.298C174.907 59.298 175.751 59.522 176.451 59.97C177.161 60.4087 177.693 61.006 178.047 61.762C178.402 62.5087 178.579 63.3347 178.579 64.24C178.579 65.164 178.402 66.004 178.047 66.76C177.693 67.516 177.161 68.118 176.451 68.566C175.751 69.0047 174.907 69.224 173.917 69.224ZM173.917 68.216C174.627 68.216 175.233 68.048 175.737 67.712C176.241 67.3667 176.624 66.8953 176.885 66.298C177.147 65.6913 177.277 65.01 177.277 64.254C177.277 63.498 177.147 62.8213 176.885 62.224C176.624 61.6267 176.237 61.1553 175.723 60.81C175.219 60.4647 174.617 60.292 173.917 60.292C173.208 60.292 172.597 60.4647 172.083 60.81C171.579 61.1553 171.197 61.6267 170.935 62.224C170.674 62.8213 170.543 63.498 170.543 64.254C170.543 65.01 170.674 65.6913 170.935 66.298C171.197 66.8953 171.579 67.3667 172.083 67.712C172.597 68.048 173.208 68.216 173.917 68.216ZM189.784 59.48V69H188.51V65.682L188.58 61.566L185.654 65.934H184.772L181.818 61.524L181.902 65.682V69H180.628V59.48H181.776L185.206 64.576L188.636 59.48H189.784ZM192.625 59.48H193.913V69H192.625V59.48ZM201.661 66.046H197.839L196.761 69H195.473L199.169 59.354H200.359L204.069 69H202.753L201.661 66.046ZM201.311 65.08L199.757 60.852L198.203 65.08H201.311ZM212.866 69.21C211.821 69.21 210.939 68.9813 210.22 68.524C209.502 68.0667 208.96 67.46 208.596 66.704C208.242 65.948 208.064 65.122 208.064 64.226C208.064 63.33 208.251 62.5087 208.624 61.762C208.998 61.0153 209.558 60.418 210.304 59.97C211.051 59.522 211.961 59.298 213.034 59.298C213.66 59.298 214.243 59.4007 214.784 59.606C215.335 59.802 215.802 60.082 216.184 60.446L215.652 61.3C215.354 60.992 214.971 60.7493 214.504 60.572C214.038 60.3853 213.548 60.292 213.034 60.292C212.25 60.292 211.583 60.4647 211.032 60.81C210.482 61.1553 210.062 61.6267 209.772 62.224C209.492 62.8213 209.352 63.4933 209.352 64.24C209.352 65.0053 209.488 65.6867 209.758 66.284C210.029 66.8813 210.426 67.3527 210.948 67.698C211.48 68.0433 212.12 68.216 212.866 68.216C214.014 68.216 215.008 67.7773 215.848 66.9L216.324 67.74C215.904 68.1693 215.4 68.524 214.812 68.804C214.224 69.0747 213.576 69.21 212.866 69.21ZM218.261 59.48H219.549V69H218.261V59.48ZM225.421 64.814H223.685V69H222.397V59.48H225.589C226.672 59.48 227.493 59.7133 228.053 60.18C228.613 60.6467 228.893 61.286 228.893 62.098C228.893 62.7793 228.711 63.3393 228.347 63.778C227.983 64.2073 227.447 64.492 226.737 64.632L229.845 69H228.347L225.421 64.814ZM223.685 63.834H225.589C226.933 63.834 227.605 63.2693 227.605 62.14C227.605 61.608 227.433 61.1927 227.087 60.894C226.742 60.5953 226.243 60.446 225.589 60.446H223.685V63.834ZM235.679 69.21C234.633 69.21 233.751 68.9813 233.033 68.524C232.314 68.0667 231.773 67.46 231.409 66.704C231.054 65.948 230.877 65.122 230.877 64.226C230.877 63.33 231.063 62.5087 231.437 61.762C231.81 61.0153 232.37 60.418 233.117 59.97C233.863 59.522 234.773 59.298 235.847 59.298C236.472 59.298 237.055 59.4007 237.597 59.606C238.147 59.802 238.614 60.082 238.997 60.446L238.465 61.3C238.166 60.992 237.783 60.7493 237.317 60.572C236.85 60.3853 236.36 60.292 235.847 60.292C235.063 60.292 234.395 60.4647 233.845 60.81C233.294 61.1553 232.874 61.6267 232.585 62.224C232.305 62.8213 232.165 63.4933 232.165 64.24C232.165 65.0053 232.3 65.6867 232.571 66.284C232.841 66.8813 233.238 67.3527 233.761 67.698C234.293 68.0433 234.932 68.216 235.679 68.216C236.827 68.216 237.821 67.7773 238.661 66.9L239.137 67.74C238.717 68.1693 238.213 68.524 237.625 68.804C237.037 69.0747 236.388 69.21 235.679 69.21ZM244.798 69.224C243.556 69.224 242.6 68.8787 241.928 68.188C241.265 67.4973 240.934 66.5827 240.934 65.444V59.48H242.222V65.43C242.222 66.3167 242.446 67.0027 242.894 67.488C243.342 67.9733 243.976 68.216 244.798 68.216C245.619 68.216 246.249 67.9733 246.688 67.488C247.136 67.0027 247.36 66.3167 247.36 65.43V59.48H248.648V65.416C248.648 66.5733 248.316 67.4973 247.654 68.188C246.991 68.8787 246.039 69.224 244.798 69.224ZM257.186 68.034V69H251.348V59.48H252.636V68.034H257.186ZM263.802 66.046H259.98L258.902 69H257.614L261.31 59.354H262.5L266.21 69H264.894L263.802 66.046ZM263.452 65.08L261.898 60.852L260.344 65.08H263.452ZM270.779 64.814H269.043V69H267.755V59.48H270.947C272.03 59.48 272.851 59.7133 273.411 60.18C273.971 60.6467 274.251 61.286 274.251 62.098C274.251 62.7793 274.069 63.3393 273.705 63.778C273.341 64.2073 272.804 64.492 272.095 64.632L275.203 69H273.705L270.779 64.814ZM269.043 63.834H270.947C272.291 63.834 272.963 63.2693 272.963 62.14C272.963 61.608 272.79 61.1927 272.445 60.894C272.1 60.5953 271.6 60.446 270.947 60.446H269.043V63.834Z" fill="#1B1A1A"/>
<path d="M14.4323 24.6141V48.7455H0V24.7106C0 8.68732 11.7383 0 26.5555 0C27.0366 0 27.7101 2.21248e-06 28.3836 0.096528C29.0571 0.193054 29.8268 0.386105 30.5003 0.482631V14.4789C30.0192 14.3823 29.442 14.2858 28.7684 14.1893C28.0949 14.0928 27.5176 13.9962 27.0366 13.9962C24.6312 13.9962 22.7069 14.2858 21.0712 14.7684C18.3772 15.7337 15.9718 17.5677 15.1058 20.4635C14.6248 21.7183 14.4323 23.1662 14.4323 24.6141Z" fill="#1B1A1A"/>
<path d="M59.643 23.4208C59.8465 27.4156 60.05 31.4105 60.2535 35.4053C62.9133 35.1686 65.5997 34.8192 68.3177 34.2716C72.3115 33.4361 76.423 32.3101 80.51 29.7868C84.3385 27.5375 89.4856 21.9212 87.4046 14.9596L87.3094 14.6631C83.6148 3.69891 70.545 -1.91116 60.3047 0.671265L60.397 0.654014C47.9515 3.18216 33.3119 13.7717 35.9614 28.4891L35.9515 28.3723C37.2417 40.7063 48.6141 49.6435 59.8489 49.8379L59.8851 49.841C65.3738 49.9199 70.8503 49.417 76.0982 47.907C78.493 47.1798 80.9018 46.211 82.7766 44.5455C80.7767 46.0511 78.3504 46.801 75.9495 47.3258C70.7102 48.391 65.2665 48.4471 60.0114 47.9466L60.0476 47.9497C49.4102 46.8684 40.6838 37.9401 40.4624 28.107L40.4525 27.9901C39.2625 16.5796 51.1144 9.42018 61.6736 7.99449L61.7659 7.97723C69.21 7.00567 76.5278 10.9955 78.2437 17.9008L78.1485 17.6043C78.2219 18.1208 77.5828 19.515 75.1771 20.7264C72.8699 21.9123 69.7025 22.6416 66.4653 23.0231C64.2526 23.2856 61.9601 23.4026 59.643 23.4208Z" fill="#1B1A1A"/>
<path d="M62.4217 23.7221L62.7089 34.354L52.1131 29.3209L62.4217 23.7221Z" fill="#1B1A1A" stroke="#1B1A1A" stroke-width="6"/>
<path d="M141.568 24.6141V48.7455H127.135V24.6141C127.135 17.9538 124.056 13.4171 117.033 13.4171C110.105 13.4171 106.93 18.0503 106.93 24.6141V48.7455H92.4978V24.6141C92.4978 9.7491 102.697 0 117.033 0C131.946 0 141.568 10.2317 141.568 24.6141Z" fill="#1B1A1A"/>
<path d="M173.126 0C188.039 0 198.623 9.84582 198.623 24.6143C198.623 39.7687 187.462 49.2285 173.126 49.2285C158.309 49.2284 147.629 39.3825 147.629 24.6143C147.629 9.36329 158.694 0.000125399 173.126 0ZM173.126 13.417C166.102 13.4171 162.062 17.568 162.062 24.6143C162.062 31.6604 166.103 35.8114 173.126 35.8115C180.15 35.8115 184.191 31.6605 184.191 24.6143C184.191 17.5679 180.15 13.417 173.126 13.417Z" fill="#1B1A1A"/>
<path d="M251.831 0L232.106 48.2629H217.674L197.95 0H212.286C214.403 5.50197 216.52 10.9074 218.636 16.4094C220.657 21.9113 222.774 27.3168 224.89 32.8188C227.007 27.3168 229.124 21.9113 231.241 16.4094C233.261 10.9074 235.378 5.50197 237.495 0H251.831Z" fill="#1B1A1A"/>
<path d="M276.847 0C292.145 0 301.767 9.84582 302.151 24.6143C302.248 25.8691 302.248 27.3173 302.248 29.0547C302.248 35.8112 303.306 42.5677 306 48.7451H291.567C290.605 46.3321 289.739 43.9187 289.162 41.4092C285.891 46.8145 280.888 49.2284 274.73 49.2285C260.972 49.2285 251.157 37.6449 251.157 24.4209C251.157 9.16994 262.511 4.55504e-05 276.847 0ZM276.847 13.417C274.826 13.417 273.095 13.707 271.651 14.2861C267.225 16.3132 265.59 20.0777 265.59 24.7109C265.59 26.2552 265.782 27.7033 266.263 28.958C267.706 33.9772 272.036 35.8115 276.847 35.8115C284.159 35.8115 287.719 31.8535 287.719 24.6143C287.334 17.5679 284.159 13.417 276.847 13.417Z" fill="#1B1A1A"/>
</g>
<defs>
<clipPath id="clip0_102_2">
<rect width="306" height="69" fill="white"/>
</clipPath>
</defs>
</svg>
