<svg width="53" height="50" viewBox="0 0 53 50" fill="none" xmlns="http://www.w3.org/2000/svg">
<path d="M23.9956 23.3717C24.199 27.3665 24.4025 31.3613 24.606 35.3561C27.2659 35.1195 29.9522 34.7701 32.6703 34.2224C36.664 33.3869 40.7756 32.2609 44.8625 29.7376C48.6911 27.4884 53.8382 21.8721 51.7572 14.9105L51.662 14.6139C47.9673 3.64975 34.8975 -1.96032 24.6572 0.622101L24.7495 0.60485C12.304 3.133 -2.33558 13.7225 0.313973 28.44L0.304053 28.3232C1.59421 40.6571 12.9666 49.5944 24.2014 49.7887L24.2376 49.7918C29.7264 49.8707 35.2028 49.3678 40.4508 47.8579C42.8455 47.1306 45.2543 46.1619 47.1291 44.4964C45.1292 46.002 42.703 46.7518 40.3021 47.2766C35.0627 48.3419 29.6191 48.3979 24.3639 47.8974L24.4002 47.9005C13.7628 46.8192 5.03632 37.891 4.81497 28.0578L4.80505 27.941C3.61506 16.5305 15.4669 9.37102 26.0261 7.94532L26.1184 7.92807C33.5626 6.95651 40.8803 10.9464 42.5962 17.8517L42.501 17.5551C42.5744 18.0717 41.9354 19.4658 39.5297 20.6772C37.2224 21.8632 34.0551 22.5925 30.8178 22.9739C28.6052 23.2365 26.3126 23.3534 23.9956 23.3717Z" fill="#136F8A"/>
<path d="M26.7743 23.673L27.0615 34.3048L16.4656 29.2717L26.7743 23.673Z" fill="#136F8A" stroke="#136F8A" stroke-width="6"/>
</svg>
