<svg width="306" height="76" viewBox="0 0 306 76" fill="none" xmlns="http://www.w3.org/2000/svg">
<path d="M32.4282 72.196C31.1029 72.196 30.0062 71.9347 29.1382 71.412L29.6002 70.082C30.0669 70.3247 30.5242 70.5067 30.9722 70.628C31.4202 70.74 31.8962 70.796 32.4002 70.796C32.9696 70.796 33.4456 70.6793 33.8282 70.446C34.2109 70.2127 34.4022 69.8767 34.4022 69.438C34.4022 69.1673 34.3089 68.9387 34.1222 68.752C33.9449 68.556 33.7209 68.3973 33.4502 68.276C33.1796 68.1453 32.8062 67.996 32.3302 67.828C31.7142 67.604 31.2149 67.3987 30.8322 67.212C30.4589 67.016 30.1369 66.75 29.8662 66.414C29.5956 66.0687 29.4602 65.6347 29.4602 65.112C29.4602 64.2253 29.7869 63.5393 30.4402 63.054C31.1029 62.5593 31.9756 62.312 33.0582 62.312C34.1409 62.312 35.0929 62.564 35.9142 63.068L35.4522 64.384C34.6776 63.936 33.8982 63.712 33.1142 63.712C32.5916 63.712 32.1622 63.824 31.8262 64.048C31.4902 64.272 31.3222 64.5893 31.3222 65C31.3222 65.2427 31.4062 65.4527 31.5742 65.63C31.7516 65.8073 31.9662 65.9567 32.2182 66.078C32.4796 66.19 32.8436 66.3347 33.3102 66.512C33.9449 66.7453 34.4582 66.9647 34.8502 67.17C35.2422 67.366 35.5782 67.6413 35.8582 67.996C36.1382 68.3413 36.2782 68.7847 36.2782 69.326C36.2782 70.222 35.9376 70.9267 35.2562 71.44C34.5749 71.944 33.6322 72.196 32.4282 72.196ZM42.2501 72.196C41.2048 72.196 40.3134 71.9767 39.5761 71.538C38.8388 71.09 38.2788 70.4927 37.8961 69.746C37.5228 68.99 37.3361 68.1593 37.3361 67.254C37.3361 66.3393 37.5228 65.5087 37.8961 64.762C38.2694 64.0153 38.8248 63.4227 39.5621 62.984C40.3088 62.536 41.2048 62.312 42.2501 62.312C43.2861 62.312 44.1728 62.536 44.9101 62.984C45.6568 63.4227 46.2168 64.0153 46.5901 64.762C46.9728 65.5087 47.1641 66.3347 47.1641 67.24C47.1641 68.1547 46.9728 68.99 46.5901 69.746C46.2168 70.4927 45.6614 71.09 44.9241 71.538C44.1868 71.9767 43.2954 72.196 42.2501 72.196ZM42.2641 70.796C42.8894 70.796 43.4261 70.642 43.8741 70.334C44.3314 70.026 44.6768 69.606 44.9101 69.074C45.1528 68.5327 45.2741 67.9213 45.2741 67.24C45.2741 66.568 45.1528 65.966 44.9101 65.434C44.6768 64.902 44.3314 64.482 43.8741 64.174C43.4261 63.866 42.8894 63.712 42.2641 63.712C41.6294 63.712 41.0834 63.866 40.6261 64.174C40.1781 64.482 39.8374 64.902 39.6041 65.434C39.3708 65.966 39.2541 66.568 39.2541 67.24C39.2541 67.9213 39.3708 68.5327 39.6041 69.074C39.8374 69.606 40.1781 70.026 40.6261 70.334C41.0834 70.642 41.6294 70.796 42.2641 70.796ZM55.1544 70.642V72H49.0084V62.48H50.9124V70.642H55.1544ZM60.5944 72.196C59.2504 72.196 58.219 71.8507 57.5004 71.16C56.7817 70.46 56.4224 69.5127 56.4224 68.318V62.48H58.3264V68.304C58.3264 69.1347 58.5177 69.76 58.9004 70.18C59.2924 70.5907 59.857 70.796 60.5944 70.796C61.3224 70.796 61.8777 70.5907 62.2604 70.18C62.6524 69.76 62.8484 69.1347 62.8484 68.304V62.48H64.7524V68.29C64.7524 69.494 64.393 70.446 63.6744 71.146C62.965 71.846 61.9384 72.196 60.5944 72.196ZM71.7435 72.742C72.0982 72.7513 72.3968 72.854 72.6395 73.05C72.8822 73.246 73.0035 73.4933 73.0035 73.792C73.0035 74.184 72.8215 74.5293 72.4575 74.828C72.1028 75.1267 71.5242 75.3133 70.7215 75.388L70.4275 74.548C70.8848 74.4733 71.1975 74.38 71.3655 74.268C71.5428 74.1653 71.6315 74.0393 71.6315 73.89C71.6315 73.778 71.5895 73.6893 71.5055 73.624C71.4308 73.568 71.3235 73.54 71.1835 73.54C71.0435 73.54 70.8942 73.5727 70.7355 73.638L70.3015 73.12L70.8335 72.154C69.8815 72.0607 69.0742 71.7807 68.4115 71.314C67.7488 70.838 67.2542 70.2453 66.9275 69.536C66.6008 68.8267 66.4375 68.0567 66.4375 67.226C66.4375 66.3393 66.6335 65.5227 67.0255 64.776C67.4268 64.0293 68.0195 63.432 68.8035 62.984C69.5875 62.536 70.5348 62.312 71.6455 62.312C72.2335 62.312 72.7842 62.3913 73.2975 62.55C73.8202 62.7087 74.2682 62.928 74.6415 63.208L74.1375 64.51C73.8202 64.2767 73.4468 64.0853 73.0175 63.936C72.5975 63.7867 72.1402 63.712 71.6455 63.712C70.9548 63.712 70.3575 63.866 69.8535 64.174C69.3588 64.482 68.9808 64.9067 68.7195 65.448C68.4675 65.98 68.3415 66.5773 68.3415 67.24C68.3415 67.9213 68.4628 68.5327 68.7055 69.074C68.9482 69.606 69.3075 70.026 69.7835 70.334C70.2595 70.642 70.8335 70.796 71.5055 70.796C72.0468 70.796 72.5508 70.7073 73.0175 70.53C73.4842 70.3433 73.8948 70.1147 74.2495 69.844L74.7255 71.118C74.3802 71.3793 73.9742 71.6033 73.5075 71.79C73.0502 71.9767 72.5648 72.098 72.0515 72.154L71.7435 72.742ZM80.7102 72.196C79.6648 72.196 78.7735 71.9767 78.0362 71.538C77.2988 71.09 76.7388 70.4927 76.3562 69.746C75.9828 68.99 75.7962 68.1593 75.7962 67.254C75.7962 66.3393 75.9828 65.5087 76.3562 64.762C76.7295 64.0153 77.2848 63.4227 78.0222 62.984C78.7688 62.536 79.6648 62.312 80.7102 62.312C81.7462 62.312 82.6328 62.536 83.3702 62.984C84.1168 63.4227 84.6768 64.0153 85.0502 64.762C85.4328 65.5087 85.6242 66.3347 85.6242 67.24C85.6242 68.1547 85.4328 68.99 85.0502 69.746C84.6768 70.4927 84.1215 71.09 83.3842 71.538C82.6468 71.9767 81.7555 72.196 80.7102 72.196ZM80.7242 70.796C81.3495 70.796 81.8862 70.642 82.3342 70.334C82.7915 70.026 83.1368 69.606 83.3702 69.074C83.6128 68.5327 83.7342 67.9213 83.7342 67.24C83.7342 66.568 83.6128 65.966 83.3702 65.434C83.1368 64.902 82.7915 64.482 82.3342 64.174C81.8862 63.866 81.3495 63.712 80.7242 63.712C80.0895 63.712 79.5435 63.866 79.0862 64.174C78.6382 64.482 78.2975 64.902 78.0642 65.434C77.8308 65.966 77.7142 66.568 77.7142 67.24C77.7142 67.9213 77.8308 68.5327 78.0642 69.074C78.2975 69.606 78.6382 70.026 79.0862 70.334C79.5435 70.642 80.0895 70.796 80.7242 70.796ZM78.1342 61.612C78.1808 60.9213 78.3442 60.38 78.6242 59.988C78.9135 59.5867 79.2775 59.386 79.7162 59.386C79.9215 59.386 80.1035 59.428 80.2622 59.512C80.4302 59.596 80.6168 59.7173 80.8222 59.876C80.9995 60.0067 81.1442 60.1047 81.2562 60.17C81.3682 60.226 81.4895 60.254 81.6202 60.254C81.7695 60.254 81.8908 60.1793 81.9842 60.03C82.0868 59.8807 82.1755 59.6333 82.2502 59.288L83.2862 59.344C83.2395 60.0067 83.0715 60.548 82.7822 60.968C82.5022 61.3787 82.1475 61.584 81.7182 61.584C81.4942 61.584 81.2935 61.542 81.1162 61.458C80.9482 61.3647 80.7522 61.2387 80.5282 61.08C80.3695 60.9587 80.2342 60.87 80.1222 60.814C80.0195 60.7487 79.9122 60.716 79.8002 60.716C79.6415 60.716 79.5155 60.7907 79.4222 60.94C79.3288 61.0893 79.2495 61.332 79.1842 61.668L78.1342 61.612ZM93.6145 70.642V72H87.4685V62.48H93.3345V63.838H89.3725V66.288H92.7745V67.646H89.3725V70.642H93.6145ZM98.0073 72.196C96.6819 72.196 95.5853 71.9347 94.7173 71.412L95.1793 70.082C95.6459 70.3247 96.1033 70.5067 96.5513 70.628C96.9993 70.74 97.4753 70.796 97.9793 70.796C98.5486 70.796 99.0246 70.6793 99.4073 70.446C99.7899 70.2127 99.9813 69.8767 99.9813 69.438C99.9813 69.1673 99.8879 68.9387 99.7013 68.752C99.5239 68.556 99.2999 68.3973 99.0293 68.276C98.7586 68.1453 98.3853 67.996 97.9093 67.828C97.2933 67.604 96.7939 67.3987 96.4113 67.212C96.0379 67.016 95.7159 66.75 95.4453 66.414C95.1746 66.0687 95.0393 65.6347 95.0393 65.112C95.0393 64.2253 95.3659 63.5393 96.0193 63.054C96.6819 62.5593 97.5546 62.312 98.6373 62.312C99.7199 62.312 100.672 62.564 101.493 63.068L101.031 64.384C100.257 63.936 99.4773 63.712 98.6933 63.712C98.1706 63.712 97.7413 63.824 97.4053 64.048C97.0693 64.272 96.9013 64.5893 96.9013 65C96.9013 65.2427 96.9853 65.4527 97.1533 65.63C97.3306 65.8073 97.5453 65.9567 97.7973 66.078C98.0586 66.19 98.4226 66.3347 98.8893 66.512C99.5239 66.7453 100.037 66.9647 100.429 67.17C100.821 67.366 101.157 67.6413 101.437 67.996C101.717 68.3413 101.857 68.7847 101.857 69.326C101.857 70.222 101.517 70.9267 100.835 71.44C100.154 71.944 99.2113 72.196 98.0073 72.196ZM112.995 70.642V72H106.849V62.48H112.715V63.838H108.753V66.288H112.155V67.646H108.753V70.642H112.995ZM124.64 62.48V72H122.778V69.074L122.904 65.42L120.454 69.312H119.054L116.576 65.364L116.73 69.074V72H114.868V62.48H116.632L119.754 67.366L122.876 62.48H124.64ZM136.546 70.642V72H130.4V62.48H136.266V63.838H132.304V66.288H135.706V67.646H132.304V70.642H136.546ZM142.773 72.182C141.671 72.182 140.738 71.958 139.973 71.51C139.217 71.0527 138.647 70.4507 138.265 69.704C137.891 68.948 137.705 68.122 137.705 67.226C137.705 66.3393 137.901 65.5227 138.293 64.776C138.694 64.0293 139.287 63.432 140.071 62.984C140.855 62.536 141.802 62.312 142.913 62.312C143.501 62.312 144.051 62.3913 144.565 62.55C145.087 62.7087 145.535 62.928 145.909 63.208L145.405 64.51C145.087 64.2767 144.714 64.0853 144.285 63.936C143.865 63.7867 143.407 63.712 142.913 63.712C142.222 63.712 141.625 63.866 141.121 64.174C140.626 64.482 140.248 64.9067 139.987 65.448C139.735 65.98 139.609 66.5773 139.609 67.24C139.609 67.9213 139.73 68.5327 139.973 69.074C140.215 69.606 140.575 70.026 141.051 70.334C141.527 70.642 142.101 70.796 142.773 70.796C143.314 70.796 143.818 70.7073 144.285 70.53C144.751 70.3433 145.162 70.1147 145.517 69.844L145.993 71.118C145.591 71.426 145.111 71.6827 144.551 71.888C143.991 72.084 143.398 72.182 142.773 72.182ZM151.977 72.196C150.932 72.196 150.041 71.9767 149.303 71.538C148.566 71.09 148.006 70.4927 147.623 69.746C147.25 68.99 147.063 68.1593 147.063 67.254C147.063 66.3393 147.25 65.5087 147.623 64.762C147.997 64.0153 148.552 63.4227 149.289 62.984C150.036 62.536 150.932 62.312 151.977 62.312C153.013 62.312 153.9 62.536 154.637 62.984C155.384 63.4227 155.944 64.0153 156.317 64.762C156.7 65.5087 156.891 66.3347 156.891 67.24C156.891 68.1547 156.7 68.99 156.317 69.746C155.944 70.4927 155.389 71.09 154.651 71.538C153.914 71.9767 153.023 72.196 151.977 72.196ZM151.991 70.796C152.617 70.796 153.153 70.642 153.601 70.334C154.059 70.026 154.404 69.606 154.637 69.074C154.88 68.5327 155.001 67.9213 155.001 67.24C155.001 66.568 154.88 65.966 154.637 65.434C154.404 64.902 154.059 64.482 153.601 64.174C153.153 63.866 152.617 63.712 151.991 63.712C151.357 63.712 150.811 63.866 150.353 64.174C149.905 64.482 149.565 64.902 149.331 65.434C149.098 65.966 148.981 66.568 148.981 67.24C148.981 67.9213 149.098 68.5327 149.331 69.074C149.565 69.606 149.905 70.026 150.353 70.334C150.811 70.642 151.357 70.796 151.991 70.796ZM167.066 62.48V72L165.372 72.014L160.5 65.294L160.64 68.5V72H158.736V62.48H160.43L165.302 69.186L165.162 65.798V62.48H167.066ZM173.798 72.196C172.753 72.196 171.861 71.9767 171.124 71.538C170.387 71.09 169.827 70.4927 169.444 69.746C169.071 68.99 168.884 68.1593 168.884 67.254C168.884 66.3393 169.071 65.5087 169.444 64.762C169.817 64.0153 170.373 63.4227 171.11 62.984C171.857 62.536 172.753 62.312 173.798 62.312C174.834 62.312 175.721 62.536 176.458 62.984C177.205 63.4227 177.765 64.0153 178.138 64.762C178.521 65.5087 178.712 66.3347 178.712 67.24C178.712 68.1547 178.521 68.99 178.138 69.746C177.765 70.4927 177.209 71.09 176.472 71.538C175.735 71.9767 174.843 72.196 173.798 72.196ZM173.812 70.796C174.437 70.796 174.974 70.642 175.422 70.334C175.879 70.026 176.225 69.606 176.458 69.074C176.701 68.5327 176.822 67.9213 176.822 67.24C176.822 66.568 176.701 65.966 176.458 65.434C176.225 64.902 175.879 64.482 175.422 64.174C174.974 63.866 174.437 63.712 173.812 63.712C173.177 63.712 172.631 63.866 172.174 64.174C171.726 64.482 171.385 64.902 171.152 65.434C170.919 65.966 170.802 66.568 170.802 67.24C170.802 67.9213 170.919 68.5327 171.152 69.074C171.385 69.606 171.726 70.026 172.174 70.334C172.631 70.642 173.177 70.796 173.812 70.796ZM190.328 62.48V72H188.466V69.074L188.592 65.42L186.142 69.312H184.742L182.264 65.364L182.418 69.074V72H180.556V62.48H182.32L185.442 67.366L188.564 62.48H190.328ZM192.868 62.48H194.772V72H192.868V62.48ZM202.401 69.424H198.873L197.977 72H196.059L199.727 62.354H201.547L205.229 72H203.297L202.401 69.424ZM201.925 68.08L200.637 64.356L199.335 68.08H201.925ZM214.101 72.182C213 72.182 212.066 71.958 211.301 71.51C210.545 71.0527 209.976 70.4507 209.593 69.704C209.22 68.948 209.033 68.122 209.033 67.226C209.033 66.3393 209.229 65.5227 209.621 64.776C210.022 64.0293 210.615 63.432 211.399 62.984C212.183 62.536 213.13 62.312 214.241 62.312C214.829 62.312 215.38 62.3913 215.893 62.55C216.416 62.7087 216.864 62.928 217.237 63.208L216.733 64.51C216.416 64.2767 216.042 64.0853 215.613 63.936C215.193 63.7867 214.736 63.712 214.241 63.712C213.55 63.712 212.953 63.866 212.449 64.174C211.954 64.482 211.576 64.9067 211.315 65.448C211.063 65.98 210.937 66.5773 210.937 67.24C210.937 67.9213 211.058 68.5327 211.301 69.074C211.544 69.606 211.903 70.026 212.379 70.334C212.855 70.642 213.429 70.796 214.101 70.796C214.642 70.796 215.146 70.7073 215.613 70.53C216.08 70.3433 216.49 70.1147 216.845 69.844L217.321 71.118C216.92 71.426 216.439 71.6827 215.879 71.888C215.319 72.084 214.726 72.182 214.101 72.182ZM219.106 62.48H221.01V72H219.106V62.48ZM227 68.15H225.446V72H223.542V62.48H227.042C229.45 62.48 230.654 63.3947 230.654 65.224C230.654 66.568 230.066 67.4313 228.89 67.814L231.76 72H229.562L227 68.15ZM225.446 66.792H227.042C227.63 66.792 228.06 66.6707 228.33 66.428C228.61 66.1853 228.75 65.8167 228.75 65.322C228.75 64.3327 228.181 63.838 227.042 63.838H225.446V66.792ZM237.583 72.182C236.482 72.182 235.549 71.958 234.783 71.51C234.027 71.0527 233.458 70.4507 233.075 69.704C232.702 68.948 232.515 68.122 232.515 67.226C232.515 66.3393 232.711 65.5227 233.103 64.776C233.505 64.0293 234.097 63.432 234.881 62.984C235.665 62.536 236.613 62.312 237.723 62.312C238.311 62.312 238.862 62.3913 239.375 62.55C239.898 62.7087 240.346 62.928 240.719 63.208L240.215 64.51C239.898 64.2767 239.525 64.0853 239.095 63.936C238.675 63.7867 238.218 63.712 237.723 63.712C237.033 63.712 236.435 63.866 235.931 64.174C235.437 64.482 235.059 64.9067 234.797 65.448C234.545 65.98 234.419 66.5773 234.419 67.24C234.419 67.9213 234.541 68.5327 234.783 69.074C235.026 69.606 235.385 70.026 235.861 70.334C236.337 70.642 236.911 70.796 237.583 70.796C238.125 70.796 238.629 70.7073 239.095 70.53C239.562 70.3433 239.973 70.1147 240.327 69.844L240.803 71.118C240.402 71.426 239.921 71.6827 239.361 71.888C238.801 72.084 238.209 72.182 237.583 72.182ZM246.62 72.196C245.276 72.196 244.245 71.8507 243.526 71.16C242.807 70.46 242.448 69.5127 242.448 68.318V62.48H244.352V68.304C244.352 69.1347 244.543 69.76 244.926 70.18C245.318 70.5907 245.883 70.796 246.62 70.796C247.348 70.796 247.903 70.5907 248.286 70.18C248.678 69.76 248.874 69.1347 248.874 68.304V62.48H250.778V68.29C250.778 69.494 250.419 70.446 249.7 71.146C248.991 71.846 247.964 72.196 246.62 72.196ZM259.323 70.642V72H253.177V62.48H255.081V70.642H259.323ZM265.827 69.424H262.299L261.403 72H259.485L263.153 62.354H264.973L268.655 72H266.723L265.827 69.424ZM265.351 68.08L264.063 64.356L262.761 68.08H265.351ZM273.411 68.15H271.857V72H269.953V62.48H273.453C275.861 62.48 277.065 63.3947 277.065 65.224C277.065 66.568 276.477 67.4313 275.301 67.814L278.171 72H275.973L273.411 68.15ZM271.857 66.792H273.453C274.041 66.792 274.47 66.6707 274.741 66.428C275.021 66.1853 275.161 65.8167 275.161 65.322C275.161 64.3327 274.592 63.838 273.453 63.838H271.857V66.792Z" fill="#0EA47A"/>
<path d="M14.4323 24.6141V48.7455H0V24.7106C0 8.68732 11.7383 0 26.5555 0C27.0366 0 27.7101 2.20537e-06 28.3836 0.096528C29.0571 0.193054 29.8268 0.386105 30.5003 0.482631V14.4789C30.0192 14.3823 29.442 14.2858 28.7684 14.1893C28.0949 14.0928 27.5176 13.9962 27.0366 13.9962C24.6312 13.9962 22.7069 14.2858 21.0712 14.7684C18.3772 15.7337 15.9718 17.5677 15.1058 20.4635C14.6248 21.7183 14.4323 23.1662 14.4323 24.6141Z" fill="#0EA47A"/>
<path d="M60.3051 0.671065C70.5452 -1.91105 83.6144 3.69928 87.309 14.6633L87.4047 14.9592C89.4856 21.9205 84.3387 27.5369 80.5101 29.7863C76.4232 32.3096 72.3115 33.4361 68.3177 34.2717C65.5997 34.8193 62.9132 35.1688 60.2533 35.4054C60.0498 31.4107 59.8464 27.4158 59.6429 23.4211C61.96 23.4028 64.2526 23.2852 66.4652 23.0226C69.7024 22.6411 72.8699 21.9126 75.1771 20.7267C77.5821 19.5157 78.2218 18.1216 78.1488 17.6047L78.2435 17.9006C76.5275 10.9955 69.21 7.00623 61.766 7.97771L61.6732 7.99431C51.114 9.42008 39.2625 16.58 40.4525 27.9904L40.4623 28.1066C40.6836 37.9397 49.41 46.8679 60.0472 47.9494L60.0111 47.9465C65.2663 48.447 70.7102 48.3907 75.9496 47.3254C78.3504 46.8006 80.7769 46.0506 82.7767 44.5451C80.902 46.2106 78.4927 47.1801 76.098 47.9074C70.8501 49.4173 65.3737 49.9199 59.8851 49.841L59.849 49.8381C48.6142 49.6437 37.2417 40.7062 35.9515 28.3722L35.9613 28.4894C33.3118 13.772 47.9513 3.18265 60.3969 0.654463L60.3051 0.671065Z" fill="#136F8A"/>
<path d="M45.4982 29.4994L65.2886 18.7513L65.8399 39.1634L45.4982 29.4994Z" fill="#136F8A"/>
<path d="M141.568 24.6141V48.7455H127.135V24.6141C127.135 17.9538 124.056 13.4171 117.033 13.4171C110.105 13.4171 106.93 18.0503 106.93 24.6141V48.7455H92.4978V24.6141C92.4978 9.7491 102.697 0 117.033 0C131.946 0 141.568 10.2317 141.568 24.6141Z" fill="#0EA47A"/>
<path fill-rule="evenodd" clip-rule="evenodd" d="M173.126 0C188.039 0 198.623 9.84582 198.623 24.6143C198.623 39.7687 187.462 49.2285 173.126 49.2285C158.309 49.2284 147.629 39.3825 147.629 24.6143C147.629 9.36329 158.694 0.000125399 173.126 0ZM173.126 13.417C166.102 13.4171 162.062 17.568 162.062 24.6143C162.062 31.6604 166.103 35.8114 173.126 35.8115C180.15 35.8115 184.191 31.6605 184.191 24.6143C184.191 17.5679 180.15 13.417 173.126 13.417Z" fill="#0EA47A"/>
<path d="M251.831 0L232.106 48.2629H217.674L197.95 0H212.286C214.403 5.50197 216.52 10.9074 218.636 16.4094C220.657 21.9113 222.774 27.3168 224.89 32.8188C227.007 27.3168 229.124 21.9113 231.241 16.4094C233.261 10.9074 235.378 5.50197 237.495 0H251.831Z" fill="#0EA47A"/>
<path fill-rule="evenodd" clip-rule="evenodd" d="M276.847 0C292.145 0 301.767 9.84582 302.151 24.6143C302.248 25.8691 302.248 27.3173 302.248 29.0547C302.248 35.8112 303.306 42.5677 306 48.7451H291.567C290.605 46.3321 289.739 43.9187 289.162 41.4092C285.891 46.8145 280.888 49.2284 274.73 49.2285C260.972 49.2285 251.157 37.6449 251.157 24.4209C251.157 9.16994 262.511 4.55504e-05 276.847 0ZM276.847 13.417C274.826 13.417 273.095 13.707 271.651 14.2861C267.225 16.3132 265.59 20.0777 265.59 24.7109C265.59 26.2552 265.782 27.7033 266.263 28.958C267.706 33.9772 272.036 35.8115 276.847 35.8115C284.159 35.8115 287.719 31.8535 287.719 24.6143C287.334 17.5679 284.159 13.417 276.847 13.417Z" fill="#0EA47A"/>
</svg>
