<svg width="298" height="414" viewBox="0 0 298 414" fill="none" xmlns="http://www.w3.org/2000/svg">
<g filter="url(#filter0_d_74_87)">
<mask id="path-1-outside-1_74_87" maskUnits="userSpaceOnUse" x="4" y="0" width="290" height="406" fill="black">
<rect fill="white" x="4" width="290" height="406"/>
<path d="M149 34C210.304 34 260 83.517 260 144.6C260 205.682 149 350 149 350C149 350 38 205.682 38 144.6C38.0002 83.517 87.6964 34 149 34ZM149 65.5996C105.282 65.5996 69.7141 101.039 69.7139 144.6C69.7139 191.959 148.865 302.411 149 302.6C149.135 302.411 228.286 191.959 228.286 144.6C228.286 101.039 192.718 65.5996 149 65.5996ZM144.142 81.4902C170 75.1765 202.526 89.2914 211.673 116.851L211.875 117.483C216.81 134.105 204.47 147.691 194.887 153.275C184.711 159.502 174.282 162.329 164.115 164.39C162.066 164.79 160.021 165.146 157.981 165.464L158.385 180.369L105.682 155.331L156.956 127.484L157.313 140.74C158.276 140.639 159.235 140.529 160.188 140.407C176.63 139.136 193.846 129.917 192.379 123.651L192.415 123.766C187.501 104.888 167.179 94.1726 147.24 97.0664L147.044 97.1025C119.266 101.055 87.8706 120.396 91.291 150.805L91.3125 151.055C92.1409 177.18 115.402 200.319 143.074 202.92C156.731 204.115 170.826 203.863 184.39 200.999C190.608 199.591 196.889 197.595 202.044 193.651C197.155 197.937 190.91 200.398 184.705 202.238C171.101 206.056 156.913 207.258 142.739 206.956L142.662 206.949C113.724 206.241 84.8325 183.101 81.7266 151.622L81.748 151.871C75.2306 114.377 112.572 87.7549 144.338 81.4541L144.142 81.4902Z"/>
</mask>
<path d="M149 34C210.304 34 260 83.517 260 144.6C260 205.682 149 350 149 350C149 350 38 205.682 38 144.6C38.0002 83.517 87.6964 34 149 34ZM149 65.5996C105.282 65.5996 69.7141 101.039 69.7139 144.6C69.7139 191.959 148.865 302.411 149 302.6C149.135 302.411 228.286 191.959 228.286 144.6C228.286 101.039 192.718 65.5996 149 65.5996ZM144.142 81.4902C170 75.1765 202.526 89.2914 211.673 116.851L211.875 117.483C216.81 134.105 204.47 147.691 194.887 153.275C184.711 159.502 174.282 162.329 164.115 164.39C162.066 164.79 160.021 165.146 157.981 165.464L158.385 180.369L105.682 155.331L156.956 127.484L157.313 140.74C158.276 140.639 159.235 140.529 160.188 140.407C176.63 139.136 193.846 129.917 192.379 123.651L192.415 123.766C187.501 104.888 167.179 94.1726 147.24 97.0664L147.044 97.1025C119.266 101.055 87.8706 120.396 91.291 150.805L91.3125 151.055C92.1409 177.18 115.402 200.319 143.074 202.92C156.731 204.115 170.826 203.863 184.39 200.999C190.608 199.591 196.889 197.595 202.044 193.651C197.155 197.937 190.91 200.398 184.705 202.238C171.101 206.056 156.913 207.258 142.739 206.956L142.662 206.949C113.724 206.241 84.8325 183.101 81.7266 151.622L81.748 151.871C75.2306 114.377 112.572 87.7549 144.338 81.4541L144.142 81.4902Z" fill="#136F8A"/>
<path d="M260 144.6L294 144.6L294 144.599L260 144.6ZM149 350L122.05 370.729L149 405.768L175.95 370.729L149 350ZM38 144.6L4 144.599V144.6H38ZM69.7139 144.6L35.7139 144.599V144.6H69.7139ZM149 302.6L121.365 322.407L149 360.963L176.635 322.407L149 302.6ZM228.286 144.6L262.286 144.6L262.286 144.599L228.286 144.6ZM144.142 81.4902L136.077 48.4606L150.297 114.928L144.142 81.4902ZM211.673 116.851L244.06 106.505L244.002 106.322L243.942 106.14L211.673 116.851ZM211.875 117.483L244.469 107.806L244.369 107.47L244.263 107.137L211.875 117.483ZM194.887 153.275L177.768 123.899L177.452 124.084L177.139 124.275L194.887 153.275ZM164.115 164.39L170.639 197.758L170.753 197.736L170.867 197.712L164.115 164.39ZM157.981 165.464L152.739 131.87L123.185 136.482L123.994 166.384L157.981 165.464ZM158.385 180.369L143.795 211.08L193.872 234.87L192.372 179.449L158.385 180.369ZM105.682 155.331L89.4551 125.453L30.7114 157.356L91.0918 186.042L105.682 155.331ZM156.956 127.484L190.944 126.568L189.449 71.147L140.73 97.6063L156.956 127.484ZM157.313 140.74L123.326 141.657L124.317 178.408L160.879 174.553L157.313 140.74ZM160.188 140.407L157.567 106.508L156.724 106.574L155.886 106.681L160.188 140.407ZM192.379 123.651L224.797 113.4L159.275 131.406L192.379 123.651ZM192.415 123.766L159.997 134.017L225.318 115.2L192.415 123.766ZM147.24 97.0664L142.357 63.4189L141.719 63.5115L141.085 63.6282L147.24 97.0664ZM147.044 97.1025L151.834 130.763L152.519 130.666L153.199 130.541L147.044 97.1025ZM91.291 150.805L125.166 147.894L125.128 147.448L125.078 147.004L91.291 150.805ZM91.3125 151.055L125.295 149.977L125.266 149.059L125.188 148.144L91.3125 151.055ZM143.074 202.92L139.893 236.771L140.002 236.781L140.111 236.791L143.074 202.92ZM184.39 200.999L191.414 234.265L191.658 234.214L191.901 234.159L184.39 200.999ZM202.044 193.651L224.454 219.221L181.384 166.648L202.044 193.651ZM184.705 202.238L193.891 234.974L194.132 234.906L194.372 234.835L184.705 202.238ZM142.739 206.956L139.738 240.823L140.875 240.924L142.015 240.948L142.739 206.956ZM142.662 206.949L145.663 173.082L144.58 172.986L143.494 172.959L142.662 206.949ZM81.7266 151.622L115.562 148.284L47.8524 154.545L81.7266 151.622ZM81.748 151.871L48.2503 157.694L115.622 148.949L81.748 151.871ZM144.338 81.4541L150.953 114.804L138.183 48.0159L144.338 81.4541ZM149 34V68C191.642 68 226 102.41 226 144.6L260 144.6L294 144.599C294 64.6236 228.965 0 149 0V34ZM260 144.6H226C226 151.798 222.049 166.396 211.891 187.989C202.338 208.295 189.294 230.72 175.795 251.984C162.371 273.132 148.888 292.52 138.731 306.658C133.664 313.71 129.452 319.418 126.525 323.339C125.061 325.299 123.921 326.811 123.157 327.818C122.775 328.322 122.487 328.7 122.3 328.944C122.207 329.066 122.139 329.155 122.096 329.21C122.075 329.238 122.061 329.257 122.053 329.267C122.049 329.272 122.047 329.275 122.046 329.276C122.046 329.276 122.047 329.275 122.047 329.275C122.048 329.274 122.05 329.271 149 350C175.95 370.729 175.953 370.725 175.956 370.722C175.957 370.72 175.961 370.715 175.964 370.711C175.97 370.703 175.978 370.693 175.987 370.681C176.006 370.656 176.032 370.622 176.064 370.58C176.129 370.496 176.22 370.377 176.337 370.224C176.57 369.919 176.906 369.479 177.336 368.91C178.198 367.774 179.442 366.125 181.014 364.02C184.157 359.81 188.617 353.766 193.956 346.334C204.612 331.503 218.879 310.995 233.205 288.428C247.456 265.977 262.162 240.869 273.422 216.936C284.076 194.29 294 167.942 294 144.6H260ZM149 350C175.95 329.271 175.952 329.274 175.953 329.275C175.953 329.275 175.954 329.276 175.954 329.276C175.953 329.275 175.951 329.272 175.947 329.267C175.939 329.257 175.925 329.238 175.904 329.21C175.861 329.155 175.793 329.066 175.7 328.944C175.513 328.7 175.225 328.322 174.843 327.818C174.079 326.811 172.939 325.299 171.475 323.339C168.548 319.418 164.336 313.71 159.269 306.658C149.112 292.52 135.629 273.132 122.205 251.984C108.706 230.72 95.6623 208.295 86.1092 187.989C75.9509 166.396 72 151.798 72 144.6H38H4C4 167.942 13.9241 194.29 24.5783 216.936C35.8377 240.869 50.5438 265.977 64.7952 288.428C79.1208 310.995 93.3883 331.503 104.044 346.334C109.383 353.766 113.843 359.81 116.986 364.02C118.558 366.125 119.802 367.774 120.664 368.91C121.094 369.479 121.43 369.919 121.663 370.224C121.78 370.377 121.871 370.496 121.936 370.58C121.968 370.622 121.994 370.656 122.013 370.681C122.022 370.693 122.03 370.703 122.036 370.711C122.039 370.715 122.043 370.72 122.044 370.722C122.047 370.725 122.05 370.729 149 350ZM38 144.6L72 144.6C72.0001 102.41 106.358 68 149 68V34V0C69.0346 0 4.00027 64.6236 4 144.599L38 144.6ZM149 65.5996V31.5996C86.6202 31.5996 35.7142 82.1458 35.7139 144.599L69.7139 144.6L103.714 144.6C103.714 119.933 123.944 99.5996 149 99.5996V65.5996ZM69.7139 144.6H35.7139C35.7139 163.917 43.2242 185.192 50.9187 202.833C59.1129 221.62 69.7695 241.192 80.0255 258.57C100.581 293.399 121.073 322 121.365 322.407L149 302.6L176.635 282.793C176.791 283.011 157.64 256.291 138.587 224.008C129.038 207.829 119.899 190.896 113.248 175.648C106.097 159.253 103.714 148.962 103.714 144.6H69.7139ZM149 302.6L176.635 322.407C176.927 322 197.419 293.399 217.975 258.57C228.23 241.192 238.887 221.62 247.081 202.833C254.776 185.192 262.286 163.917 262.286 144.6H228.286H194.286C194.286 148.962 191.903 159.253 184.752 175.648C178.101 190.896 168.962 207.829 159.413 224.008C140.36 256.291 121.209 283.011 121.365 282.793L149 302.6ZM228.286 144.6L262.286 144.599C262.286 82.1458 211.38 31.5996 149 31.5996V65.5996V99.5996C174.056 99.5996 194.286 119.933 194.286 144.6L228.286 144.6ZM144.142 81.4902L152.206 114.52C163.695 111.715 176.711 119.447 179.404 127.561L211.673 116.851L243.942 106.14C228.341 59.1358 176.304 38.6383 136.077 48.4606L144.142 81.4902ZM211.673 116.851L179.285 127.197L179.487 127.829L211.875 117.483L244.263 107.137L244.06 106.505L211.673 116.851ZM211.875 117.483L179.281 127.161C179.162 126.758 179.052 126.212 179.014 125.563C178.976 124.917 179.016 124.299 179.107 123.746C179.289 122.65 179.617 122.115 179.593 122.155C179.553 122.222 179.311 122.584 178.793 123.079C178.555 123.306 178.317 123.505 178.105 123.665C177.889 123.828 177.763 123.902 177.768 123.899L194.887 153.275L212.005 182.651C221.005 177.407 231.008 168.749 238.057 156.881C245.495 144.36 250.178 127.036 244.469 107.806L211.875 117.483ZM194.887 153.275L177.139 124.275C171.984 127.43 166.115 129.293 157.363 131.067L164.115 164.39L170.867 197.712C182.449 195.366 197.439 191.575 212.634 182.276L194.887 153.275ZM164.115 164.39L157.592 131.021C156.007 131.331 154.391 131.613 152.739 131.87L157.981 165.464L163.224 199.057C165.65 198.679 168.125 198.249 170.639 197.758L164.115 164.39ZM157.981 165.464L123.994 166.384L124.397 181.289L158.385 180.369L192.372 179.449L191.969 164.544L157.981 165.464ZM158.385 180.369L172.975 149.659L120.272 124.621L105.682 155.331L91.0918 186.042L143.795 211.08L158.385 180.369ZM105.682 155.331L121.908 185.209L173.183 157.362L156.956 127.484L140.73 97.6063L89.4551 125.453L105.682 155.331ZM156.956 127.484L122.968 128.401L123.326 141.657L157.313 140.74L191.301 139.824L190.944 126.568L156.956 127.484ZM157.313 140.74L160.879 174.553C162.042 174.43 163.25 174.292 164.491 174.134L160.188 140.407L155.886 106.681C155.219 106.766 154.51 106.847 153.748 106.928L157.313 140.74ZM160.188 140.407L162.81 174.306C175.817 173.3 188.707 169.314 198.821 163.996C203.754 161.403 209.834 157.555 215.017 152.06C219.014 147.822 229.861 134.589 225.483 115.897L192.379 123.651L159.275 131.406C157.463 123.668 159.002 117.057 160.792 112.837C162.475 108.872 164.579 106.431 165.544 105.407C167.397 103.443 168.421 103.154 167.178 103.808C164.94 104.984 161.001 106.243 157.567 106.508L160.188 140.407ZM192.379 123.651L159.961 133.903L159.997 134.017L192.415 123.766L224.833 113.514L224.797 113.4L192.379 123.651ZM192.415 123.766L225.318 115.2C215.051 75.7608 175.26 58.6435 142.357 63.4189L147.24 97.0664L152.124 130.714C154.732 130.335 157.123 130.932 158.597 131.774C159.902 132.52 159.653 132.876 159.512 132.331L192.415 123.766ZM147.24 97.0664L141.085 63.6282L140.889 63.6644L147.044 97.1025L153.199 130.541L153.396 130.505L147.24 97.0664ZM147.044 97.1025L142.254 63.4417C123.206 66.1523 102.185 74.0976 85.6282 87.9749C68.4727 102.354 54.197 125.205 57.5041 154.605L91.291 150.805L125.078 147.004C124.965 145.996 124.677 143.973 129.308 140.091C134.538 135.707 143.105 132.006 151.834 130.763L147.044 97.1025ZM91.291 150.805L57.4159 153.716L57.4374 153.966L91.3125 151.055L125.188 148.144L125.166 147.894L91.291 150.805ZM91.3125 151.055L57.3296 152.132C58.7596 197.229 97.0677 232.746 139.893 236.771L143.074 202.92L146.256 169.069C133.735 167.892 125.522 157.131 125.295 149.977L91.3125 151.055ZM143.074 202.92L140.111 236.791C156.071 238.187 173.686 238.009 191.414 234.265L184.39 200.999L177.365 167.733C167.967 169.717 157.392 170.043 146.038 169.049L143.074 202.92ZM184.39 200.999L191.901 234.159C199.471 232.444 211.603 229.148 222.704 220.654L202.044 193.651L181.384 166.648C181.905 166.25 182.019 166.304 181.253 166.603C180.436 166.922 179.108 167.334 176.879 167.839L184.39 200.999ZM202.044 193.651L179.634 168.082C180.149 167.631 180.253 167.694 179.444 168.073C178.599 168.469 177.246 168.987 175.038 169.641L184.705 202.238L194.372 234.835C201.914 232.599 213.922 228.451 224.454 219.221L202.044 193.651ZM184.705 202.238L175.519 169.503C166.004 172.173 155.325 173.216 143.463 172.964L142.739 206.956L142.015 240.948C158.5 241.299 176.199 239.939 193.891 234.974L184.705 202.238ZM142.739 206.956L145.74 173.089L145.663 173.082L142.662 206.949L139.661 240.817L139.738 240.823L142.739 206.956ZM142.662 206.949L143.494 172.959C129.844 172.625 116.805 160.876 115.562 148.284L81.7266 151.622L47.8909 154.961C52.8602 205.325 97.6035 239.857 141.83 240.939L142.662 206.949ZM81.7266 151.622L47.8524 154.545L47.8739 154.794L81.748 151.871L115.622 148.949L115.601 148.7L81.7266 151.622ZM81.748 151.871L115.246 146.048C114.403 141.199 115.645 135.89 122.373 129.357C129.626 122.313 140.739 116.83 150.953 114.804L144.338 81.4541L137.723 48.1038C116.171 52.3786 92.7296 63.357 75.0005 80.573C56.7452 98.3 42.5759 125.049 48.2503 157.694L81.748 151.871ZM144.338 81.4541L138.183 48.0159L137.986 48.052L144.142 81.4902L150.297 114.928L150.493 114.892L144.338 81.4541Z" fill="white" mask="url(#path-1-outside-1_74_87)"/>
</g>
<defs>
<filter id="filter0_d_74_87" x="0" y="0" width="298" height="413.768" filterUnits="userSpaceOnUse" color-interpolation-filters="sRGB">
<feFlood flood-opacity="0" result="BackgroundImageFix"/>
<feColorMatrix in="SourceAlpha" type="matrix" values="0 0 0 0 0 0 0 0 0 0 0 0 0 0 0 0 0 0 127 0" result="hardAlpha"/>
<feOffset dy="4"/>
<feGaussianBlur stdDeviation="2"/>
<feComposite in2="hardAlpha" operator="out"/>
<feColorMatrix type="matrix" values="0 0 0 0 0 0 0 0 0 0 0 0 0 0 0 0 0 0 0.25 0"/>
<feBlend mode="normal" in2="BackgroundImageFix" result="effect1_dropShadow_74_87"/>
<feBlend mode="normal" in="SourceGraphic" in2="effect1_dropShadow_74_87" result="shape"/>
</filter>
</defs>
</svg>
