<svg id="visual" viewBox="0 0 675 400" width="675" height="400" xmlns="http://www.w3.org/2000/svg" xmlns:xlink="http://www.w3.org/1999/xlink" version="1.1"><path d="M0 105L22.5 103.7C45 102.3 90 99.7 135 93.7C180 87.7 225 78.3 270 69C315 59.7 360 50.3 405 54.3C450 58.3 495 75.7 540 80.3C585 85 630 77 652.5 73L675 69L675 0L652.5 0C630 0 585 0 540 0C495 0 450 0 405 0C360 0 315 0 270 0C225 0 180 0 135 0C90 0 45 0 22.5 0L0 0Z" fill="#ecfdf5"></path><path d="M0 173L22.5 170.3C45 167.7 90 162.3 135 149.7C180 137 225 117 270 105.7C315 94.3 360 91.7 405 97C450 102.3 495 115.7 540 116.3C585 117 630 105 652.5 99L675 93L675 67L652.5 71C630 75 585 83 540 78.3C495 73.7 450 56.3 405 52.3C360 48.3 315 57.7 270 67C225 76.3 180 85.7 135 91.7C90 97.7 45 100.3 22.5 101.7L0 103Z" fill="#dbfceb"></path><path d="M0 233L22.5 228.3C45 223.7 90 214.3 135 205.7C180 197 225 189 270 196.3C315 203.7 360 226.3 405 231.7C450 237 495 225 540 216.3C585 207.7 630 202.3 652.5 199.7L675 197L675 91L652.5 97C630 103 585 115 540 114.3C495 113.7 450 100.3 405 95C360 89.7 315 92.3 270 103.7C225 115 180 135 135 147.7C90 160.3 45 165.7 22.5 168.3L0 171Z" fill="#d0fae5"></path><path d="M0 361L22.5 361C45 361 90 361 135 359.7C180 358.3 225 355.7 270 351.7C315 347.7 360 342.3 405 345C450 347.7 495 358.3 540 361.7C585 365 630 361 652.5 359L675 357L675 195L652.5 197.7C630 200.3 585 205.7 540 214.3C495 223 450 235 405 229.7C360 224.3 315 201.7 270 194.3C225 187 180 195 135 203.7C90 212.3 45 221.7 22.5 226.3L0 231Z" fill="#dbfceb"></path><path d="M0 401L22.5 401C45 401 90 401 135 401C180 401 225 401 270 401C315 401 360 401 405 401C450 401 495 401 540 401C585 401 630 401 652.5 401L675 401L675 355L652.5 357C630 359 585 363 540 359.7C495 356.3 450 345.7 405 343C360 340.3 315 345.7 270 349.7C225 353.7 180 356.3 135 357.7C90 359 45 359 22.5 359L0 359Z" fill="#ecfdf5"></path></svg>