<svg id="visual" viewBox="0 0 960 200" width="960" height="200" xmlns="http://www.w3.org/2000/svg" xmlns:xlink="http://www.w3.org/1999/xlink" version="1.1"><rect x="0" y="0" width="960" height="200" fill="#dff7ec"></rect><path d="M0 111L40 122C80 133 160 155 240 153.7C320 152.3 400 127.7 480 124.7C560 121.7 640 140.3 720 155.7C800 171 880 183 920 189L960 195L960 0L920 0C880 0 800 0 720 0C640 0 560 0 480 0C400 0 320 0 240 0C160 0 80 0 40 0L0 0Z" fill="#c5f2e0"></path><path d="M0 132L40 122C80 112 160 92 240 83.8C320 75.7 400 79.3 480 89.8C560 100.3 640 117.7 720 127.8C800 138 880 141 920 142.5L960 144L960 0L920 0C880 0 800 0 720 0C640 0 560 0 480 0C400 0 320 0 240 0C160 0 80 0 40 0L0 0Z" fill="#abebd0"></path><path d="M0 11L40 9.5C80 8 160 5 240 17.8C320 30.7 400 59.3 480 64C560 68.7 640 49.3 720 36.5C800 23.7 880 17.3 920 14.2L960 11L960 0L920 0C880 0 800 0 720 0C640 0 560 0 480 0C400 0 320 0 240 0C160 0 80 0 40 0L0 0Z" fill="#83d3b0"></path></svg>