<svg id="visual" viewBox="0 0 960 200" width="960" height="200" xmlns="http://www.w3.org/2000/svg" xmlns:xlink="http://www.w3.org/1999/xlink" version="1.1"><rect x="0" y="0" width="960" height="200" fill="#C5F2E0"></rect><path d="M0 119L40 129.2C80 139.3 160 159.7 240 155.2C320 150.7 400 121.3 480 117.2C560 113 640 134 720 131.5C800 129 880 103 920 90L960 77L960 201L920 201C880 201 800 201 720 201C640 201 560 201 480 201C400 201 320 201 240 201C160 201 80 201 40 201L0 201Z" fill="#dff7ec" stroke-linecap="round" stroke-linejoin="miter"></path></svg>