<svg id="visual" viewBox="0 0 960 200" width="960" height="200" xmlns="http://www.w3.org/2000/svg" xmlns:xlink="http://www.w3.org/1999/xlink" version="1.1"><rect x="0" y="0" width="960" height="200" fill="#C5F2E0"></rect><path d="M0 82L40 78.3C80 74.7 160 67.3 240 64.2C320 61 400 62 480 78C560 94 640 125 720 127.2C800 129.3 880 102.7 920 89.3L960 76L960 201L920 201C880 201 800 201 720 201C640 201 560 201 480 201C400 201 320 201 240 201C160 201 80 201 40 201L0 201Z" fill="#dff7ec" stroke-linecap="round" stroke-linejoin="miter"></path></svg>