<svg id="visual" viewBox="0 0 960 120" width="960" height="120" xmlns="http://www.w3.org/2000/svg" xmlns:xlink="http://www.w3.org/1999/xlink" version="1.1"><path d="M0 47L80 43C160 39 320 31 480 34.7C640 38.3 800 53.7 880 61.3L960 69L960 0L880 0C800 0 640 0 480 0C320 0 160 0 80 0L0 0Z" fill="#dff7ec"></path><path d="M0 85L80 79.7C160 74.3 320 63.7 480 67.3C640 71 800 89 880 98L960 107L960 67L880 59.3C800 51.7 640 36.3 480 32.7C320 29 160 37 80 41L0 45Z" fill="#96b8ab"></path><path d="M0 90L80 89C160 88 320 86 480 90.5C640 95 800 106 880 111.5L960 117L960 105L880 96C800 87 640 69 480 65.3C320 61.7 160 72.3 80 77.7L0 83Z" fill="#507d6e"></path><path d="M0 121L80 121C160 121 320 121 480 121C640 121 800 121 880 121L960 121L960 115L880 109.5C800 104 640 93 480 88.5C320 84 160 86 80 87L0 88Z" fill="#004538"></path></svg>