<svg id="visual" viewBox="0 0 960 200" width="960" height="200" xmlns="http://www.w3.org/2000/svg" xmlns:xlink="http://www.w3.org/1999/xlink" version="1.1"><rect x="0" y="0" width="960" height="200" fill="#C5F2E0"></rect><path d="M0 116L40 119.7C80 123.3 160 130.7 240 133.8C320 137 400 136 480 120C560 104 640 73 720 70.8C800 68.7 880 95.3 920 108.7L960 122L960 0L920 0C880 0 800 0 720 0C640 0 560 0 480 0C400 0 320 0 240 0C160 0 80 0 40 0L0 0Z" fill="#dff7ec" stroke-linecap="round" stroke-linejoin="miter"></path></svg>