<svg id="visual" viewBox="0 0 675 400" width="675" height="400" xmlns="http://www.w3.org/2000/svg" xmlns:xlink="http://www.w3.org/1999/xlink" version="1.1"><rect x="0" y="0" width="675" height="400" fill="#d0fae5"></rect><path d="M0 201L37.5 202.5C75 204 150 207 225 196C300 185 375 160 450 160.5C525 161 600 187 637.5 200L675 213L675 0L637.5 0C600 0 525 0 450 0C375 0 300 0 225 0C150 0 75 0 37.5 0L0 0Z" fill="#bff8e2"></path><path d="M0 110L37.5 105.8C75 101.7 150 93.3 225 98.5C300 103.7 375 122.3 450 131.2C525 140 600 139 637.5 138.5L675 138L675 0L637.5 0C600 0 525 0 450 0C375 0 300 0 225 0C150 0 75 0 37.5 0L0 0Z" fill="#a4f4cf"></path><path d="M0 73L37.5 73.7C75 74.3 150 75.7 225 69.7C300 63.7 375 50.3 450 44C525 37.7 600 38.3 637.5 38.7L675 39L675 0L637.5 0C600 0 525 0 450 0C375 0 300 0 225 0C150 0 75 0 37.5 0L0 0Z" fill="#7ce0af"></path></svg>