<svg id="visual" viewBox="0 0 960 200" width="960" height="200" xmlns="http://www.w3.org/2000/svg" xmlns:xlink="http://www.w3.org/1999/xlink" version="1.1"><rect x="0" y="0" width="960" height="200" fill="#C5F2E0"></rect><path d="M0 79L40 68.8C80 58.7 160 38.3 240 42.8C320 47.3 400 76.7 480 80.8C560 85 640 64 720 66.5C800 69 880 95 920 108L960 121L960 0L920 0C880 0 800 0 720 0C640 0 560 0 480 0C400 0 320 0 240 0C160 0 80 0 40 0L0 0Z" fill="#dff7ec" stroke-linecap="round" stroke-linejoin="miter"></path></svg>