<svg id="visual" viewBox="0 0 960 440" width="960" height="440" xmlns="http://www.w3.org/2000/svg" xmlns:xlink="http://www.w3.org/1999/xlink" version="1.1"><rect x="0" y="0" width="960" height="440" fill="#f0fdfa"></rect><path d="M0 319L40 327.2C80 335.3 160 351.7 240 355.8C320 360 400 352 480 330C560 308 640 272 720 230.5C800 189 880 142 920 118.5L960 95L960 0L920 0C880 0 800 0 720 0C640 0 560 0 480 0C400 0 320 0 240 0C160 0 80 0 40 0L0 0Z" fill="#ddfcf6"></path><path d="M0 172L40 146.2C80 120.3 160 68.7 240 55.8C320 43 400 69 480 76.8C560 84.7 640 74.3 720 89C800 103.7 880 143.3 920 163.2L960 183L960 0L920 0C880 0 800 0 720 0C640 0 560 0 480 0C400 0 320 0 240 0C160 0 80 0 40 0L0 0Z" fill="#cbfbf1"></path><path d="M0 147L40 148.2C80 149.3 160 151.7 240 132.5C320 113.3 400 72.7 480 49.3C560 26 640 20 720 21C800 22 880 30 920 34L960 38L960 0L920 0C880 0 800 0 720 0C640 0 560 0 480 0C400 0 320 0 240 0C160 0 80 0 40 0L0 0Z" fill="#b1f9ea"></path></svg>