<svg id="visual" viewBox="0 0 675 900" width="675" height="900" xmlns="http://www.w3.org/2000/svg" xmlns:xlink="http://www.w3.org/1999/xlink" version="1.1"><rect x="0" y="0" width="675" height="900" fill="#f0fdfa"></rect><path d="M0 523L37.5 480.7C75 438.3 150 353.7 225 329.7C300 305.7 375 342.3 450 348.2C525 354 600 329 637.5 316.5L675 304L675 0L637.5 0C600 0 525 0 450 0C375 0 300 0 225 0C150 0 75 0 37.5 0L0 0Z" fill="#ddfcf6"></path><path d="M0 351L37.5 337.5C75 324 150 297 225 314.8C300 332.7 375 395.3 450 425.5C525 455.7 600 453.3 637.5 452.2L675 451L675 0L637.5 0C600 0 525 0 450 0C375 0 300 0 225 0C150 0 75 0 37.5 0L0 0Z" fill="#d1fbf3"></path><path d="M0 334L37.5 306.2C75 278.3 150 222.7 225 223.2C300 223.7 375 280.3 450 293.3C525 306.3 600 275.7 637.5 260.3L675 245L675 0L637.5 0C600 0 525 0 450 0C375 0 300 0 225 0C150 0 75 0 37.5 0L0 0Z" fill="#c3faef"></path><path d="M0 221L37.5 213C75 205 150 189 225 186C300 183 375 193 450 186C525 179 600 155 637.5 143L675 131L675 0L637.5 0C600 0 525 0 450 0C375 0 300 0 225 0C150 0 75 0 37.5 0L0 0Z" fill="#b1f9ea"></path></svg>