<svg id="visual" viewBox="0 0 900 900" width="900" height="900" xmlns="http://www.w3.org/2000/svg" xmlns:xlink="http://www.w3.org/1999/xlink" version="1.1"><rect x="0" y="0" width="900" height="900" fill="#f0fdfa"></rect><path d="M0 755L75 758.3C150 761.7 300 768.3 450 758.8C600 749.3 750 723.7 825 710.8L900 698L900 0L825 0C750 0 600 0 450 0C300 0 150 0 75 0L0 0Z" fill="#cbfbf1"></path><path d="M0 544L75 546.3C150 548.7 300 553.3 450 557C600 560.7 750 563.3 825 564.7L900 566L900 0L825 0C750 0 600 0 450 0C300 0 150 0 75 0L0 0Z" fill="#d8fcf4"></path><path d="M0 419L75 407.3C150 395.7 300 372.3 450 357.7C600 343 750 337 825 334L900 331L900 0L825 0C750 0 600 0 450 0C300 0 150 0 75 0L0 0Z" fill="#e4fcf7"></path><path d="M0 176L75 165.5C150 155 300 134 450 139C600 144 750 175 825 190.5L900 206L900 0L825 0C750 0 600 0 450 0C300 0 150 0 75 0L0 0Z" fill="#f0fdfa"></path></svg>