<svg id="visual" viewBox="0 0 675 900" width="675" height="900" xmlns="http://www.w3.org/2000/svg" xmlns:xlink="http://www.w3.org/1999/xlink" version="1.1">
<path d="M0 271L56.3 281.5C112.7 292 225.3 313 337.8 340C450.3 367 562.7 400 618.8 416.5L675 433L675 0L618.8 0C562.7 0 450.3 0 337.8 0C225.3 0 112.7 0 56.3 0L0 0Z" fill="#ecfdf5"></path>
<path d="M0 550L56.3 542.5C112.7 535 225.3 520 337.8 526C450.3 532 562.7 559 618.8 572.5L675 586L675 431L618.8 414.5C562.7 398 450.3 365 337.8 338C225.3 311 112.7 290 56.3 279.5L0 269Z" fill="#7ba292"></path>
<path d="M0 901L56.3 901C112.7 901 225.3 901 337.8 901C450.3 901 562.7 901 618.8 901L675 901L675 584L618.8 570.5C562.7 557 450.3 530 337.8 524C225.3 518 112.7 533 56.3 540.5L0 548Z" fill="#004f3b"></path>
</svg>